<svg width="71" height="71" viewBox="0 0 71 71" fill="none" xmlns="http://www.w3.org/2000/svg">
<g clip-path="url(#clip0_14_9)">
<path d="M41.0378 33.4007L39.8833 31.5024L36.5854 26.0879C36.2752 25.5806 35.9696 25.0803 35.6688 24.5894C33.9242 21.7442 32.3778 19.2263 31.4519 17.7208C29.614 13.9942 27.214 10.1157 24.2565 7.34537C23.4076 6.44997 22.4163 5.67614 21.2898 5.06362C14.8991 1.58256 6.58896 4.53293 2.73124 11.6494C-1.12647 18.7681 0.925998 27.3597 7.31665 30.8408C8.3942 31.4276 9.52772 31.8297 10.6822 32.0635C11.3726 32.2622 13.8402 32.8888 17.7469 32.9075L17.7469 32.9308C17.7469 32.9308 23.4985 33.0547 30.2903 33.195C30.295 33.195 30.2997 33.195 30.302 33.1974C30.6938 33.2044 31.088 33.2137 31.4845 33.2207C32.723 33.2464 33.9848 33.2722 35.2489 33.2979C35.3539 33.3002 35.4612 33.3026 35.5661 33.3049C35.6711 33.3072 35.7737 33.3096 35.881 33.3119H35.895C36.2239 33.3189 36.555 33.3259 36.8839 33.3329C37.8192 33.3517 38.7428 33.3704 39.6524 33.3867C40.1212 33.3961 40.583 33.4054 41.0425 33.4148C41.0425 33.4101 41.0378 33.4054 41.0332 33.4007H41.0378ZM19.8461 28.0588L18.4047 28.0962C15.2933 28.0962 13.3155 27.5678 12.8023 27.4112C12.0233 27.2405 11.256 26.96 10.5213 26.5602C6.16913 24.1896 4.63911 18.5811 7.10674 14.0316C9.57204 9.4845 15.0974 7.71709 19.4496 10.0877C20.2169 10.5061 20.8956 11.0251 21.481 11.619C24.863 14.6956 27.2699 19.7313 28.5644 22.9599C29.2944 24.7787 29.6699 26.0225 29.6699 26.0225C25.8402 27.3854 22.5143 27.9232 19.8461 28.0588ZM35.5148 29.3913C35.5148 29.3913 35.5055 29.3843 35.5032 29.3796C35.5078 29.3796 35.5125 29.3773 35.5195 29.375C35.5195 29.3796 35.5148 29.3843 35.5148 29.3913Z" fill="url(#paint0_angular_14_9)"/>
<path d="M68.5063 12.3505C64.6486 5.2341 56.3384 2.28373 49.9478 5.76479C48.8212 6.37731 47.83 7.15114 46.981 8.04654C44.7 10.1833 42.7478 12.9817 41.1315 15.8596C41.1315 15.8667 41.1245 15.8713 41.1198 15.8783C40.9052 16.2197 39.3169 18.7562 37.1945 22.1508L37.1898 22.1555L35.6714 24.5845L35.6714 24.5892L34.8388 25.9171L33.9898 27.2777C33.9012 27.4203 33.8125 27.5629 33.7216 27.7055H33.7239C33.64 27.8411 33.5537 27.9767 33.4674 28.1147C33.3834 28.2503 33.2994 28.3882 33.2108 28.5261C33.0429 28.7997 32.8703 29.0732 32.6977 29.3491C32.6044 29.501 32.5111 29.6506 32.4155 29.8026C32.2429 30.0808 32.0679 30.3613 31.8954 30.6396C31.3589 31.5022 30.8248 32.3602 30.3047 33.1972C30.6965 33.2042 31.0907 33.2135 31.4872 33.2205C32.7257 33.2463 33.9875 33.272 35.2516 33.2977C35.3566 33.3 35.4639 33.3024 35.5688 33.3047C35.6738 33.307 35.7764 33.3094 35.8837 33.3117H35.8977C36.2265 33.3187 36.5577 33.3257 36.8866 33.3328C37.8219 33.3515 38.7455 33.3702 39.6551 33.3865C39.6038 33.3328 39.5525 33.2767 39.5012 33.2229C39.5548 33.279 39.6061 33.3328 39.6574 33.3865C40.1262 33.3959 40.588 33.4052 41.0475 33.4146C46.4259 33.5221 50.8761 33.604 51.844 33.604C51.9233 33.604 51.9886 33.5993 52.0446 33.5899C56.7886 33.7419 59.7833 32.9868 60.553 32.7647C61.7075 32.5309 62.841 32.1288 63.9186 31.542C70.3092 28.0609 72.3617 19.4693 68.504 12.3505H68.5063ZM50.7361 31.729C50.7361 31.729 50.7431 31.7056 50.7454 31.6916C50.7454 31.7056 50.7384 31.7173 50.7338 31.729H50.7361ZM60.7163 27.2614C59.9839 27.6611 59.2166 27.9417 58.4352 28.1123C57.4463 28.4139 51.0533 30.0995 41.5676 26.7236C41.5676 26.7236 44.4714 17.1268 49.7565 12.3201C50.3419 11.7263 51.0207 11.2073 51.788 10.7888C56.1402 8.41826 61.6679 10.1857 64.1332 14.7328C66.5985 19.2823 65.0684 24.8908 60.7163 27.2614Z" fill="url(#paint1_angular_14_9)"/>
<path d="M49.5417 50.2683C49.3668 49.415 48.5271 45.9386 45.6676 41.2349C45.3201 40.5148 43.4053 37.3073 41.0496 33.4171C41.0496 33.4171 41.0449 33.4054 41.0403 33.4007L39.8857 31.5024L36.5878 26.0879C36.2776 25.5806 35.972 25.0803 35.6712 24.5894L34.8409 25.9173L33.9919 27.2779C33.9032 27.4205 33.8146 27.5631 33.7237 27.7057H33.726C33.642 27.8413 33.5557 27.9769 33.4694 28.1148C33.3855 28.2504 33.3015 28.3884 33.2129 28.5263C33.0449 28.7998 32.8723 29.0734 32.6997 29.3492C32.6065 29.5012 32.5132 29.6508 32.4175 29.8028C32.2449 30.081 32.07 30.3615 31.8974 30.6397C31.361 31.5024 30.8269 32.3604 30.3068 33.1973C29.5324 34.4411 28.7884 35.6427 28.1003 36.7532C26.1155 39.9607 24.6181 42.4132 24.3103 42.9929C23.0695 45.1648 22.0269 47.4466 21.4042 49.7213C21.0077 50.8902 20.7861 52.1293 20.7698 53.4151C20.6671 60.7045 27.1371 66.7058 35.2164 66.818C43.298 66.9326 49.9312 61.1137 50.0338 53.8242C50.0501 52.5945 49.8799 51.4022 49.5463 50.2683H49.5417ZM44.709 42.4716C44.709 42.4716 44.7277 42.4552 44.7347 42.4482C44.7277 42.4552 44.7207 42.4622 44.7137 42.4716C44.7114 42.4716 44.7114 42.4739 44.709 42.4739L44.709 42.4716ZM26.5307 41.7679L26.505 41.7445C26.5143 41.7515 26.5237 41.7609 26.533 41.7679H26.5307ZM35.2817 61.8267C30.1178 61.7542 25.9872 57.6723 26.0572 52.7091C26.0689 51.8347 26.2111 50.9907 26.4654 50.1935C27.1138 47.678 28.4665 45.1484 29.9266 42.9462C29.9266 42.9462 29.9336 42.9345 29.9476 42.9135C29.9522 42.9064 29.9569 42.8994 29.9616 42.8901C29.9732 42.8737 29.9849 42.8527 30.0012 42.8293C30.9505 41.4149 31.9324 40.1431 32.7977 39.0981C34.2601 37.333 35.3773 36.2295 35.3773 36.2295C42.7685 43.0748 44.2542 49.5319 44.4478 50.5489C44.6601 51.3204 44.7697 52.1339 44.758 52.9709C44.688 57.9342 40.4455 61.8992 35.2817 61.8267Z" fill="url(#paint2_angular_14_9)"/>
</g>
<defs>
<radialGradient id="paint0_angular_14_9" cx="0" cy="0" r="1" gradientUnits="userSpaceOnUse" gradientTransform="translate(18.8677 20.8432) rotate(27.2472) scale(27.0368 23.3113)">
<stop offset="0.461458" stop-color="#787882"/>
<stop offset="1" stop-color="white"/>
</radialGradient>
<radialGradient id="paint1_angular_14_9" cx="0" cy="0" r="1" gradientUnits="userSpaceOnUse" gradientTransform="translate(48.338 21.2518) rotate(145.806) scale(25.2311 21.5614)">
<stop stop-color="white"/>
<stop offset="0.732292" stop-color="#787882"/>
</radialGradient>
<radialGradient id="paint2_angular_14_9" cx="0" cy="0" r="1" gradientUnits="userSpaceOnUse" gradientTransform="translate(33.9146 49.0118) rotate(-89.6419) scale(27.0639 20.3456)">
<stop offset="0.440625" stop-color="#787882"/>
<stop offset="1" stop-color="white"/>
</radialGradient>
<clipPath id="clip0_14_9">
<rect width="69.6846" height="69.8489" fill="white" transform="translate(0.785156 0.507324)"/>
</clipPath>
</defs>
</svg>
