<svg width="85" height="83" viewBox="0 0 85 83" fill="none" xmlns="http://www.w3.org/2000/svg">
<path d="M71.4701 18.4107C67.7787 11.6542 59.8267 8.85627 53.7116 12.1601C52.6336 12.7437 51.6851 13.4759 50.8727 14.3257C48.69 16.3538 46.8219 19.0097 45.2753 21.7411C45.1191 21.9897 43.5769 24.426 41.5035 27.7165C41.0415 28.451 40.5528 29.2253 40.0484 30.0263C38.3812 27.326 36.8993 24.9363 36.0132 23.5074C34.2546 19.9727 31.958 16.2894 29.1281 13.6601C28.3157 12.8103 27.3672 12.0758 26.2892 11.4945C20.1718 8.1884 12.222 10.9886 8.53061 17.745C4.83919 24.4992 6.80319 32.6535 12.9184 35.9573C13.9495 36.5143 15.0319 36.8981 16.1389 37.1178C16.8017 37.3086 19.1809 37.9055 22.9482 37.9188C22.9482 37.9188 28.4317 38.0364 34.9174 38.1718L32.795 41.5422L32.8039 41.571C30.9046 44.6153 29.4718 46.9407 29.1749 47.4932C27.9876 49.5545 26.99 51.7223 26.3941 53.879C26.0147 54.9884 25.8027 56.1644 25.7848 57.3848C25.6888 64.3032 31.8777 69.999 39.6109 70.1055C47.3442 70.212 53.6915 64.6915 53.7874 57.7731C53.8031 56.606 53.6401 55.4744 53.3232 54.3982C53.1558 53.5861 52.3524 50.2867 49.6162 45.8246C49.2836 45.1412 47.4424 42.0836 45.1815 38.3825C50.3571 38.4846 54.6467 38.5623 55.5774 38.5623C55.5796 38.5623 55.5818 38.5623 55.5841 38.5623C60.2039 38.7265 63.1164 38.0009 63.8619 37.7857C64.9688 37.566 66.0513 37.1821 67.0824 36.6252C73.1976 33.3213 75.1616 25.1671 71.4701 18.4107ZM48.7435 56.9632C48.6766 61.6738 44.6191 65.437 39.6779 65.3705C34.7366 65.3017 30.7841 61.4276 30.851 56.7169C30.8622 55.8871 30.9983 55.0861 31.2416 54.3294C32.9489 47.7572 39.7694 41.0762 39.7694 41.0762C46.842 47.573 48.2637 53.7037 48.4489 54.6689C48.652 55.4011 48.7547 56.1711 48.7435 56.9654V56.9632ZM15.9849 31.8946C11.8203 29.6447 10.3585 24.3217 12.7175 20.006C15.0765 15.6881 20.3659 14.0129 24.5283 16.2628C25.2626 16.66 25.912 17.1526 26.4722 17.7184C31.5295 22.2781 34.3081 31.3887 34.3081 31.3887C30.9113 32.5869 27.9296 33.1128 25.479 33.2881L22.9683 33.3524C20.3168 33.2947 18.6296 32.8465 18.1698 32.7089C17.4222 32.547 16.6879 32.2785 15.9871 31.8991L15.9849 31.8946ZM64.0159 32.5603C63.3128 32.9397 62.5786 33.206 61.8331 33.3702C60.8869 33.6564 54.7672 35.2562 45.6926 32.0522C45.6926 32.0522 48.4712 22.9415 53.5285 18.3818C54.0887 17.816 54.7382 17.3234 55.4725 16.9262C59.637 14.6763 64.9242 16.3538 67.2833 20.6694C69.6423 24.9873 68.1782 30.3104 64.0159 32.5581V32.5603Z" fill="white"/>
<path fill-rule="evenodd" clip-rule="evenodd" d="M61 70.105C68.6274 70.105 73 65.7324 73 58.105C73 65.7324 77.3726 70.105 85 70.105C77.3726 70.105 73 74.4776 73 82.105C73 74.4776 68.6274 70.105 61 70.105Z" fill="#FEC84B"/>
<path fill-rule="evenodd" clip-rule="evenodd" d="M4 16.0425C9.08495 16.0425 12 13.1274 12 8.04248C12 13.1274 14.9151 16.0425 20 16.0425C14.9151 16.0425 12 18.9575 12 24.0425C12 18.9575 9.08495 16.0425 4 16.0425Z" fill="#FEC84B"/>
</svg>
