<svg width="68" height="61" viewBox="0 0 68 61" fill="none" xmlns="http://www.w3.org/2000/svg">
<path d="M65.4701 8.41065C61.7787 1.65425 53.8267 -1.14373 47.7116 2.16014C46.6336 2.7437 45.6851 3.47592 44.8727 4.32574C42.69 6.35378 40.8219 9.00974 39.2753 11.7411C39.1191 11.9897 37.5769 14.426 35.5035 17.7165C35.0415 18.451 34.5528 19.2253 34.0484 20.0263C32.3812 17.326 30.8993 14.9363 30.0132 13.5074C28.2546 9.97272 25.958 6.28943 23.1281 3.66009C22.3157 2.81027 21.3672 2.07583 20.2892 1.49449C14.1718 -1.8116 6.22204 0.98859 2.53061 7.745C-1.16081 14.4992 0.803186 22.6535 6.91837 25.9573C7.94947 26.5143 9.0319 26.8981 10.1389 27.1178C10.8017 27.3086 13.1809 27.9055 16.9482 27.9188C16.9482 27.9188 22.4317 28.0364 28.9174 28.1718L26.795 31.5422L26.8039 31.571C24.9046 34.6153 23.4718 36.9407 23.1749 37.4932C21.9876 39.5545 20.99 41.7223 20.3941 43.879C20.0147 44.9884 19.8027 46.1644 19.7848 47.3848C19.6888 54.3032 25.8777 59.999 33.6109 60.1055C41.3442 60.212 47.6915 54.6915 47.7874 47.7731C47.8031 46.606 47.6401 45.4744 47.3232 44.3982C47.1558 43.5861 46.3524 40.2867 43.6162 35.8246C43.2836 35.1412 41.4424 32.0836 39.1815 28.3825C44.3571 28.4846 48.6467 28.5623 49.5774 28.5623C49.5796 28.5623 49.5818 28.5623 49.5841 28.5623C54.2039 28.7265 57.1164 28.0009 57.8619 27.7857C58.9688 27.566 60.0513 27.1821 61.0824 26.6252C67.1976 23.3213 69.1616 15.1671 65.4701 8.41065ZM42.7435 46.9632C42.6766 51.6738 38.6191 55.437 33.6779 55.3705C28.7366 55.3017 24.7841 51.4276 24.851 46.7169C24.8622 45.8871 24.9983 45.0861 25.2416 44.3294C26.9489 37.7572 33.7694 31.0762 33.7694 31.0762C40.842 37.573 42.2637 43.7037 42.4489 44.6689C42.652 45.4011 42.7547 46.1711 42.7435 46.9654V46.9632ZM9.98489 21.8946C5.82031 19.6447 4.35847 14.3217 6.71751 10.006C9.07654 5.68812 14.3659 4.01289 18.5283 6.2628C19.2626 6.65998 19.912 7.15256 20.4722 7.71837C25.5295 12.2781 28.3081 21.3887 28.3081 21.3887C24.9113 22.5869 21.9296 23.1128 19.479 23.2881L16.9683 23.3524C14.3168 23.2947 12.6296 22.8465 12.1698 22.7089C11.4222 22.547 10.6879 22.2785 9.98712 21.8991L9.98489 21.8946ZM58.0159 22.5603C57.3128 22.9397 56.5786 23.206 55.8331 23.3702C54.8869 23.6564 48.7672 25.2562 39.6926 22.0522C39.6926 22.0522 42.4712 12.9415 47.5285 8.38181C48.0887 7.816 48.7382 7.32341 49.4725 6.92624C53.637 4.67632 58.9242 6.35378 61.2833 10.6694C63.6423 14.9873 62.1782 20.3104 58.0159 22.5581V22.5603Z" fill="white"/>
</svg>
