<svg width="24" height="25" viewBox="0 0 24 25" fill="none" xmlns="http://www.w3.org/2000/svg">
<rect y="0.76123" width="24" height="24" rx="4" fill="#585DCC"/>
<g clip-path="url(#clip0_14_129)">
<path d="M13.5526 12.1798L13.2213 11.6362L12.2747 10.0859C12.1857 9.94064 12.098 9.79739 12.0117 9.65682C11.5109 8.84215 11.0671 8.1212 10.8014 7.69011C10.2739 6.62308 9.58506 5.51254 8.73626 4.71929C8.4926 4.46291 8.2081 4.24134 7.88478 4.06596C6.05061 3.06921 3.66553 3.914 2.55833 5.95167C1.45114 7.99 2.04021 10.4501 3.87438 11.4468C4.18364 11.6148 4.50897 11.73 4.84033 11.7969C5.03847 11.8538 5.7467 12.0332 6.86795 12.0386V12.0452C6.86795 12.0452 8.5187 12.0807 10.468 12.1209C10.4693 12.1209 10.4707 12.1209 10.4714 12.1216C10.5838 12.1236 10.6969 12.1262 10.8107 12.1283C11.1662 12.1356 11.5283 12.143 11.8912 12.1503C11.9213 12.151 11.9521 12.1517 11.9822 12.1524C12.0123 12.153 12.0418 12.1537 12.0726 12.1544H12.0766C12.171 12.1564 12.266 12.1584 12.3604 12.1604C12.6288 12.1657 12.8939 12.1711 13.155 12.1758C13.2895 12.1785 13.4221 12.1811 13.554 12.1838C13.554 12.1825 13.5526 12.1811 13.5513 12.1798H13.5526ZM7.47042 10.6502L7.05673 10.6609C6.16374 10.6609 5.59609 10.5096 5.44882 10.4648C5.22524 10.4159 5.005 10.3356 4.79414 10.2211C3.54503 9.54235 3.10591 7.93645 3.81413 6.63379C4.52169 5.3318 6.10751 4.82573 7.35662 5.5045C7.57685 5.62433 7.77165 5.77294 7.93967 5.94296C8.9103 6.8239 9.60113 8.26579 9.97265 9.19024C10.1822 9.71104 10.2899 10.0672 10.2899 10.0672C9.19078 10.4574 8.23621 10.6114 7.47042 10.6502ZM11.9675 11.0318C11.9675 11.0318 11.9648 11.0298 11.9641 11.0284C11.9655 11.0284 11.9668 11.0278 11.9688 11.0271C11.9688 11.0284 11.9675 11.0298 11.9675 11.0318Z" fill="url(#paint0_angular_14_129)"/>
<path d="M21.4363 6.15235C20.3291 4.11469 17.944 3.2699 16.1099 4.26664C15.7866 4.44202 15.5021 4.6636 15.2584 4.91998C14.6037 5.53181 14.0434 6.33309 13.5795 7.15712C13.5795 7.15913 13.5775 7.16047 13.5762 7.16248C13.5146 7.26021 13.0587 7.98651 12.4496 8.95849L12.4482 8.95983L12.0125 9.65534V9.65668L11.7735 10.0369L11.5298 10.4265C11.5044 10.4673 11.479 10.5082 11.4528 10.549H11.4535C11.4294 10.5878 11.4046 10.6266 11.3799 10.6661C11.3558 10.705 11.3317 10.7445 11.3062 10.784C11.258 10.8623 11.2085 10.9406 11.159 11.0196C11.1322 11.0631 11.1054 11.1059 11.078 11.1494C11.0284 11.2291 10.9782 11.3094 10.9287 11.3891C10.7747 11.6361 10.6214 11.8818 10.4722 12.1214C10.5846 12.1234 10.6978 12.1261 10.8116 12.1281C11.167 12.1355 11.5292 12.1428 11.892 12.1502C11.9221 12.1509 11.9529 12.1515 11.983 12.1522C12.0131 12.1529 12.0426 12.1536 12.0734 12.1542H12.0774C12.1718 12.1562 12.2668 12.1582 12.3612 12.1602C12.6297 12.1656 12.8947 12.171 13.1558 12.1756C13.1411 12.1602 13.1264 12.1442 13.1116 12.1288C13.127 12.1448 13.1417 12.1602 13.1565 12.1756C13.291 12.1783 13.4236 12.181 13.5554 12.1837C15.0991 12.2145 16.3763 12.2379 16.6541 12.2379C16.6769 12.2379 16.6956 12.2366 16.7117 12.2339C18.0732 12.2774 18.9328 12.0612 19.1537 11.9976C19.485 11.9306 19.8103 11.8155 20.1196 11.6475C21.9538 10.6507 22.5429 8.19068 21.4357 6.15235H21.4363ZM16.3361 11.701C16.3361 11.701 16.3382 11.6943 16.3388 11.6903C16.3388 11.6943 16.3368 11.6977 16.3355 11.701H16.3361ZM19.2005 10.4218C18.9903 10.5363 18.7701 10.6166 18.5458 10.6655C18.262 10.7518 16.4272 11.2345 13.7047 10.2678C13.7047 10.2678 14.5381 7.51994 16.055 6.14365C16.223 5.97362 16.4178 5.82501 16.638 5.70519C17.8872 5.02641 19.4736 5.53248 20.1812 6.83447C20.8888 8.13713 20.4496 9.74303 19.2005 10.4218Z" fill="url(#paint1_angular_14_129)"/>
<path d="M15.9935 17.0095C15.9433 16.7651 15.7023 15.7697 14.8816 14.4229C14.7818 14.2167 14.2323 13.2983 13.5562 12.1844C13.5562 12.1844 13.5548 12.1811 13.5535 12.1797L13.2221 11.6362L12.2756 10.0858C12.1866 9.94057 12.0989 9.79731 12.0125 9.65674L11.7742 10.037L11.5305 10.4266C11.5051 10.4674 11.4797 10.5082 11.4536 10.5491H11.4542C11.4301 10.5879 11.4054 10.6267 11.3806 10.6662C11.3565 10.705 11.3324 10.7445 11.307 10.784C11.2588 10.8623 11.2092 10.9407 11.1597 11.0196C11.1329 11.0632 11.1061 11.106 11.0787 11.1495C11.0292 11.2292 10.979 11.3095 10.9294 11.3892C10.7755 11.6362 10.6222 11.8818 10.4729 12.1215C10.2506 12.4776 10.0371 12.8217 9.83963 13.1396C9.26997 14.0581 8.84021 14.7603 8.75185 14.9263C8.39573 15.5482 8.09651 16.2015 7.91777 16.8528C7.80398 17.1875 7.74038 17.5423 7.7357 17.9105C7.70624 19.9977 9.56317 21.716 11.882 21.7482C14.2015 21.781 16.1052 20.1148 16.1347 18.0276C16.1394 17.6755 16.0905 17.3341 15.9948 17.0095H15.9935ZM14.6065 14.777C14.6065 14.777 14.6118 14.7723 14.6138 14.7703C14.6118 14.7723 14.6098 14.7743 14.6078 14.777C14.6071 14.777 14.6071 14.7777 14.6065 14.7777V14.777ZM9.38912 14.5755L9.38176 14.5688C9.38444 14.5708 9.38712 14.5735 9.38979 14.5755H9.38912ZM11.9007 20.319C10.4187 20.2982 9.23315 19.1295 9.25323 17.7083C9.25658 17.458 9.29742 17.2163 9.37038 16.988C9.55647 16.2678 9.94473 15.5435 10.3638 14.9129C10.3638 14.9129 10.3658 14.9095 10.3698 14.9035C10.3711 14.9015 10.3725 14.8995 10.3738 14.8968C10.3772 14.8921 10.3805 14.8861 10.3852 14.8794C10.6576 14.4744 10.9395 14.1103 11.1878 13.8111C11.6075 13.3057 11.9282 12.9897 11.9282 12.9897C14.0495 14.9497 14.4759 16.7986 14.5315 17.0898C14.5924 17.3107 14.6239 17.5437 14.6205 17.7833C14.6004 19.2044 13.3828 20.3398 11.9007 20.319Z" fill="url(#paint2_angular_14_129)"/>
</g>
<defs>
<radialGradient id="paint0_angular_14_129" cx="0" cy="0" r="1" gradientUnits="userSpaceOnUse" gradientTransform="translate(7.18963 8.58417) rotate(27.1924) scale(7.75594 6.67806)">
<stop stop-color="white"/>
<stop offset="0.247838" stop-color="#C1C3F5"/>
<stop offset="0.507856" stop-color="#7A7FE7"/>
<stop offset="0.754314" stop-color="#B7B9F2"/>
<stop offset="0.894617" stop-color="white"/>
</radialGradient>
<radialGradient id="paint1_angular_14_129" cx="0" cy="0" r="1" gradientUnits="userSpaceOnUse" gradientTransform="translate(15.6479 8.70107) rotate(145.868) scale(7.23616 6.17831)">
<stop stop-color="white"/>
<stop offset="0.247838" stop-color="#C1C3F5"/>
<stop offset="0.507856" stop-color="#7A7FE7"/>
<stop offset="0.754314" stop-color="#B7B9F2"/>
<stop offset="0.894617" stop-color="white"/>
</radialGradient>
<radialGradient id="paint2_angular_14_129" cx="0" cy="0" r="1" gradientUnits="userSpaceOnUse" gradientTransform="translate(11.5084 16.6497) rotate(-89.6411) scale(7.74928 8.20759)">
<stop stop-color="white"/>
<stop offset="0.247838" stop-color="#C1C3F5"/>
<stop offset="0.507856" stop-color="#7A7FE7"/>
<stop offset="0.754314" stop-color="#B7B9F2"/>
<stop offset="0.894617" stop-color="white"/>
</radialGradient>
<clipPath id="clip0_14_129">
<rect width="20" height="20" fill="white" transform="translate(2 2.76123)"/>
</clipPath>
</defs>
</svg>
