<svg width="51" height="51" viewBox="0 0 51 51" fill="none" xmlns="http://www.w3.org/2000/svg">
<path d="M43.0677 11.728C43.0677 13.7988 41.3877 15.4776 39.3152 15.4776C37.2427 15.4776 35.5627 13.7988 35.5627 11.728C35.5627 9.65724 37.2427 7.97853 39.3152 7.97853C41.3877 7.97853 43.0677 9.65724 43.0677 11.728Z" fill="white"/>
<path fill-rule="evenodd" clip-rule="evenodd" d="M25.5559 37.9747C32.4642 37.9747 38.0644 32.3789 38.0644 25.4763C38.0644 18.5736 32.4641 12.9779 25.5559 12.9779C18.6477 12.9779 13.0475 18.5736 13.0475 25.4763C13.0475 32.3789 18.6477 37.9747 25.5559 37.9747ZM25.5559 32.9753C29.7009 32.9753 33.061 29.6179 33.061 25.4763C33.061 21.3347 29.7009 17.9772 25.5559 17.9772C21.411 17.9772 18.0509 21.3347 18.0509 25.4763C18.0509 29.6179 21.411 32.9753 25.5559 32.9753Z" fill="white"/>
<path fill-rule="evenodd" clip-rule="evenodd" d="M0.539079 24.4764C0.539073 16.0767 0.53907 11.8768 2.17507 8.66858C3.61414 5.84651 5.91039 3.5521 8.73473 2.11418C11.9456 0.479492 16.1488 0.479492 24.5552 0.479492H26.5566C34.963 0.479492 39.1663 0.479492 42.3771 2.11418C45.2014 3.5521 47.4977 5.84651 48.9368 8.66858C50.5728 11.8768 50.5728 16.0767 50.5728 24.4764L50.5728 26.4761C50.5728 34.8759 50.5728 39.0757 48.9368 42.284C47.4977 45.106 45.2015 47.4005 42.3771 48.8384C39.1663 50.4731 34.9631 50.4731 26.5566 50.4731H24.5553C16.1488 50.4731 11.9456 50.4731 8.73476 48.8384C5.91043 47.4005 3.61417 45.106 2.1751 42.284C0.53909 39.0757 0.539087 34.8759 0.539081 26.4761L0.539079 24.4764ZM24.5552 5.47885H26.5566C30.8424 5.47885 33.7558 5.48274 36.0078 5.66658C38.2013 5.84566 39.3231 6.17025 40.1056 6.56864C41.9885 7.52725 43.5194 9.05686 44.4787 10.9382C44.8775 11.7201 45.2023 12.841 45.3815 15.0328C45.5655 17.283 45.5694 20.1941 45.5694 24.4764L45.5694 26.4761C45.5694 30.7585 45.5655 33.6696 45.3815 35.9197C45.2023 38.1115 44.8775 39.2324 44.4788 40.0143C43.5194 41.8957 41.9885 43.4253 40.1057 44.3839C39.3231 44.7823 38.2014 45.1069 36.0078 45.286C33.7558 45.4698 30.8424 45.4737 26.5566 45.4737H24.5553C20.2695 45.4737 17.3561 45.4698 15.1041 45.286C12.9105 45.1069 11.7888 44.7823 11.0062 44.3839C9.12335 43.4253 7.59251 41.8957 6.63313 40.0143C6.23441 39.2324 5.90956 38.1115 5.73034 35.9197C5.54635 33.6696 5.54245 30.7585 5.54245 26.4761L5.54245 24.4764C5.54245 20.1941 5.54634 17.283 5.73033 15.0328C5.90955 12.841 6.23439 11.7201 6.63311 10.9382C7.59249 9.05686 9.12333 7.52725 11.0062 6.56864C11.7887 6.17025 12.9105 5.84566 15.1041 5.66658C17.356 5.48274 20.2695 5.47885 24.5552 5.47885Z" fill="white"/>
</svg>
