<svg width="51" height="51" viewBox="0 0 51 51" fill="none" xmlns="http://www.w3.org/2000/svg">
<path fill-rule="evenodd" clip-rule="evenodd" d="M25.4589 0.479492C11.6881 0.479492 0.504608 11.643 0.504618 25.4138C0.504627 39.1846 11.6881 50.3481 25.4589 50.3481C39.2298 50.3481 50.4133 39.1846 50.4132 25.4138C50.4132 11.643 39.2297 0.479492 25.4589 0.479492ZM18.9626 14.1794C18.9626 15.8438 17.5188 17.1931 15.7377 17.1931C13.9566 17.1931 12.5127 15.8438 12.5127 14.1794C12.5127 12.5149 13.9566 11.1656 15.7377 11.1656C17.5188 11.1656 18.9626 12.5149 18.9626 14.1794ZM12.9537 19.4084H18.4665L18.4665 36.0999H12.9537L12.9537 19.4084ZM21.8292 19.4084H27.342L27.342 21.5498C28.2673 20.3736 30.0438 19.0735 32.9098 19.0735C37.7359 19.0735 39.2028 21.6654 39.2495 27.2905L39.2495 36.0999H33.7368C33.7368 35.0116 33.7292 33.9174 33.7216 32.8236L33.7216 32.8231L33.7216 32.8226L33.7216 32.8223L33.7216 32.8219C33.7109 31.2703 33.7002 29.7195 33.7111 28.187C33.7252 26.1877 33.7435 23.607 30.7047 23.607C28.0159 23.607 27.342 25.5876 27.342 27.5597L27.342 36.0999H21.8293L21.8292 19.4084Z" fill="white"/>
</svg>
