<svg width="1277" height="1287" viewBox="0 0 1277 1287" fill="none" xmlns="http://www.w3.org/2000/svg">
<g opacity="0.5">
<path d="M644.397 1168.09C456.068 1338.74 321.072 1126.33 305.773 931.644C292.278 820.358 155.46 811.775 138.822 673.873C122.183 535.97 325.484 608.86 303.674 396.014C281.864 183.168 630.761 116.571 712.911 270.8C795.062 425.029 824.752 356.306 1020.74 453.151C1216.73 549.997 1186.18 894.987 981.076 916.42C775.971 937.853 848.265 983.369 644.397 1168.09Z" stroke="white" stroke-opacity="0.25" stroke-width="1.88943"/>
<path d="M645.4 746.523C628.075 763.992 578.016 748.31 579.137 714.844C580.163 684.2 558.972 664.202 556.682 645.088C550.651 594.767 566.701 606.305 575.424 578.054C586.038 543.677 638.816 503.222 665.639 556.432C687.699 600.195 702.353 576.386 728.29 604.408C754.227 632.431 756.929 677.676 714.723 698.951C698.873 706.941 674.254 717.429 645.4 746.523Z" stroke="white" stroke-opacity="0.25" stroke-width="1.88943"/>
<path d="M643.428 1130.31C470.645 1287.03 343.37 1092.5 329.564 912.475C317.389 808.52 191.083 798.899 175.749 671.796C160.074 541.856 346.352 609.168 327.318 413.103C308.456 216.481 630.433 152.261 707.554 297.307C784.242 441.494 812.565 376.854 993.094 467.442C1173.62 558.031 1146.1 875.772 955.802 897.19C767.902 917.401 831.386 959.732 643.428 1130.31Z" stroke="white" stroke-opacity="0.25" stroke-width="1.88943"/>
<path d="M642.458 1092.52C485.221 1235.32 365.668 1058.68 353.355 893.306C342.5 796.681 226.705 786.023 212.675 669.719C197.965 547.74 367.221 609.475 350.962 430.192C335.047 249.795 630.104 187.951 702.195 323.813C773.42 457.957 800.377 397.4 965.447 481.732C1130.52 566.064 1106.01 856.556 930.527 877.96C759.832 896.949 814.506 936.096 642.458 1092.52Z" stroke="white" stroke-opacity="0.25" stroke-width="1.88943"/>
<path d="M641.49 1054.74C499.799 1183.61 387.967 1024.85 377.147 874.136C367.612 784.842 262.329 773.146 249.603 667.641C235.858 553.625 388.09 609.782 374.607 447.28C361.64 283.107 629.777 223.64 696.839 350.318C762.601 474.42 788.19 417.947 937.801 496.022C1087.41 574.097 1065.93 837.339 905.254 858.729C751.764 876.496 797.628 912.458 641.49 1054.74Z" stroke="white" stroke-opacity="0.25" stroke-width="1.88943"/>
<path d="M640.523 1016.95C514.378 1131.89 410.268 991.024 400.94 854.965C392.725 773.002 297.954 760.269 286.532 665.562C273.751 559.508 408.961 610.088 398.254 464.367C388.234 316.419 629.452 259.328 691.483 376.823C751.783 490.883 776.005 438.492 910.157 510.311C1044.31 582.13 1025.85 818.122 879.982 839.497C743.697 856.042 780.75 888.82 640.523 1016.95Z" stroke="white" stroke-opacity="0.25" stroke-width="1.88943"/>
<path d="M640.286 978.796C529.687 1079.81 433.298 956.828 425.463 835.425C418.569 760.794 334.309 747.023 324.192 663.115C312.375 565.023 430.562 610.025 422.63 481.086C415.559 349.362 629.856 294.648 686.857 402.959C741.694 506.976 764.55 458.669 883.242 524.231C1001.93 589.793 986.5 798.536 855.44 819.897C736.36 835.219 764.603 864.813 640.286 978.796Z" stroke="white" stroke-opacity="0.25" stroke-width="1.88943"/>
<path d="M640.913 940.206C545.859 1027.3 457.192 922.197 450.85 815.45C445.276 748.15 371.527 733.341 362.714 660.232C351.862 570.102 453.026 609.527 447.87 497.369C443.746 381.869 631.124 329.532 683.095 428.66C732.469 522.634 753.958 478.41 857.191 537.716C960.425 597.021 948.013 778.514 831.761 799.861C729.887 813.961 749.319 840.371 640.913 940.206Z" stroke="white" stroke-opacity="0.25" stroke-width="1.88943"/>
<path d="M641.587 901.589C562.079 974.758 481.134 887.54 476.284 795.449C472.029 735.48 408.792 719.633 401.284 657.324C391.396 575.155 475.537 609.002 473.157 513.626C471.981 414.351 632.439 364.39 679.38 454.334C723.292 538.267 743.414 498.125 831.188 551.174C918.961 604.223 909.572 758.466 808.13 779.799C723.46 792.677 734.083 815.903 641.587 901.589Z" stroke="white" stroke-opacity="0.25" stroke-width="1.88943"/>
<path d="M642.33 862.938C578.368 922.181 505.144 852.847 501.787 775.413C498.853 722.775 446.127 705.89 439.923 654.379C431 580.173 498.118 608.443 498.514 529.848C500.285 446.797 633.823 399.212 675.735 479.973C714.183 553.863 732.938 517.805 805.253 564.598C877.568 611.39 871.202 738.383 784.568 759.702C717.103 771.358 718.915 791.399 642.33 862.938Z" stroke="white" stroke-opacity="0.25" stroke-width="1.88943"/>
<path d="M643.174 824.232C594.758 869.55 529.255 818.101 527.391 755.323C525.777 710.016 483.563 692.094 478.663 651.382C470.704 585.137 520.8 607.829 523.971 546.016C528.69 479.19 635.308 433.982 672.19 505.559C705.176 569.406 722.564 537.431 779.419 577.967C836.275 618.503 832.931 718.247 761.107 739.551C710.847 749.985 703.849 766.842 643.174 824.232Z" stroke="white" stroke-opacity="0.25" stroke-width="1.88943"/>
<path d="M644.17 785.444C611.3 816.838 553.519 783.272 553.147 735.15C552.854 697.174 521.151 678.214 517.556 648.301C510.561 590.019 543.634 607.134 549.581 562.102C557.247 511.5 636.946 468.668 668.798 531.062C696.321 584.867 712.342 556.975 753.738 591.254C795.134 625.534 794.814 698.028 737.798 719.318C704.743 728.53 688.935 742.202 644.17 785.444Z" stroke="white" stroke-opacity="0.25" stroke-width="1.88943"/>
</g>
</svg>
